<svg width="326" height="60" fill="none" xmlns="http://www.w3.org/2000/svg"><mask id="a" style="mask-type:luminance" maskUnits="userSpaceOnUse" x="0" y="0" width="65" height="59"><path fill-rule="evenodd" clip-rule="evenodd" d="M50.596 19.443c-.263.222-.673.112-.965.237a.51.51 0 0 0-.095.053c-.343.245.031.697.222.936.334.42 1.273 1.246 1.844 1.098.345-.09.454-.614.465-.916.018-.537-.136-1.381-.64-1.691-.386-.237-.559.053-.83.283zm2.824 2.055c.652.512 1.648-.251.889-.89-.737-.618-1.613.322-.889.89zm-5.58 1.29c-.43.312-.574.66-.53.99.166 1.247 3.02 2.252 3.425.267.279-1.367-1.997-1.915-2.896-1.258zM30.371 58.45c-.313.955-2.492-1.407-1.414-1.496.473-.038 1.647.786 1.414 1.496zm.655-1.517c-.409 1.248-3.252-1.836-1.845-1.95.617-.051 2.148 1.025 1.845 1.95zm-2.565-.115c.185.69-.762 2.225-1.38 1.834-1.304-.825-.421-2.416-.149-2.6.31-.208 1.218-.395 1.53.766zM62.06 41.28c-1.087-.108-.892-1.715.094-1.04.432.296.713 1.12-.094 1.04zm1.857.271c-1.418-.14-1.164-2.238.122-1.356.564.386.93 1.46-.122 1.356zm-2.065-1.639c-.437.184-2.557-.272-2.742-.7-.391-.907 1.723-.499 2.111-.343.44.177 1.368.735.632 1.043zm-5.403-3.521c-.474.533-3.126.14-3.343-.483-.296-.848 2.258-1.014 2.832-.92.604.1 1.02.83.511 1.403zm-4.133 2.458c-1.23-.298-5.764-.993-5.982-2.526.544-.116 1.143.315 1.697.43 1.096.227 2.264.159 3.376.252 2.39.199 4.595 1.061 6.506 2.491.737.553 2.754 2.6.496 1.818-2.097-.727-3.898-1.933-6.093-2.465zM32.808 13.812c-.217-1.708.657-2.982.978-4.562.114-.56.314-3.644-1.414-3.146-1.914.552-.637 3.448-.387 4.61.578 2.692-.665 4.918-.867 7.422 2.605-.836 1.91-2.594 1.69-4.324zm-10.486.868c.303-.85-1.31-1.546-1.65-.977-.478.8 1.407 1.658 1.65.977zm1.702 2.58c.551-.858-1.396-1.255-1.364-1.433-.113.62.894 2.162 1.364 1.432zM34.708 1.97c1.904-.088-.103-1.897-1.64-1.967-2.16-.098.114 2.037 1.64 1.966zm-.757 2.712c2.392.142-.72-1.85-.38-1.897-1.183.163-1.656 1.776.38 1.897zM5.42 51.375c.016.377-.315.48-.392.768a.46.46 0 0 0-.015.108c-.013.445.565.727.866.88.528.27 1.738.65 1.964.186.136-.28-.21-.897-.44-1.225-.41-.583-1.164-1.402-1.708-1.464-.417-.046-.293.356-.275.747zM3.574 55.44c.155.147.337.24.508.231.384-.021.634-.517.689-.928.032-.243.082-.33.252-.439.127-.081.524-.152.478-.425-.059-.344-.42-.348-.572-.303-.309.092-.4.442-.53.744-.112.26-.35.178-.585.084-.27-.109-.537-.234-.605.119-.044.228.044.49.19.706a1.03 1.03 0 0 0-.414-.231c-.925-.267-.713 1.204.166 1.424.563.14.721-.501.423-.982zm5.145-3.382c.791.198.789-1.15-.166-1.424-.925-.267-.712 1.204.166 1.424zm3.811-.282c-.318.553-.686.939-1.14 1.342-.141.126-1.215.955-.728 1.274.684.45 1.777-1.724 2.088-2.08.353-.401.782-.897.922-1.509-.511-.18-.933.61-1.142.973zm-1.1 3.04c-.347-.191-.895.203-.403.655.578.531.304-.71.403-.655zm2.853-.202c.318.615.664.94.99 1.056 1.234.435 2.183-2.135.207-3.549-1.359-.972-1.864 1.204-1.197 2.493zm-.12-33.523c-.164 1.124-1.742.789-1.53-.38a.936.936 0 0 1 .215-.475.75.75 0 0 1-.75-.038c-.388-.245-.275-.561-.18-.889.083-.286.15-.581-.14-.847-.338-.31-.726-.586-.85-1.053-.063-.23-.089-.73.279-.663.293.052.403.633.501.844.132.281.231.388.498.537.45.251 1.009.81 1.064 1.353a.748.748 0 0 1-.208.604c.497-.208 1.206.286 1.1 1.007zM58.479 43.52c.784.046 3.057-.12 2.334 1.248-.68 1.286-2.014.353-2.47.187-1.358-.494-.993 1.257-2.206 1.606-.62.178-.676-.323-1.316.43-.194.229-.323.53-.62.668-.327.152-.672-.076-.848-.172-.683-.371-.57-1.022-.14-1.952.146-.315.585-.892.454-1.126-.137-.247-.439.059-.74.138-.297.078-.692.008-.716-.248-.051-.553 1.07-.984 1.368-1.43.374-.558-.482-.36-.778-.337-.451.032-1.253-.136-.314-.693a1.815 1.815 0 0 1 1.486-.193c.203.057.356.197.563.241.286.06.334-.015.729-.191.81-.363.977.482 1.175.846.33.609 1.202.928 2.032.978h.007zM4.165 25.832c-.979.308-3.499 1.46-4.088-.051-.553-1.422 2.016-1.2 2.732-1.258 2.133-.172-.151-1.535.919-2.376.547-.43 1.143-.018 1.105-.958-.01-.285-.175-.604.03-.856.227-.278.878-.232 1.188-.226 1.203.02 1.756.636 2.229 1.636.16.34.25 1.037.653 1.183.423.153.458-.247.732-.45.27-.199.811-.313 1.11-.1.647.458-.227 1.33-.11 1.851.147.651.953.099 1.281-.052.5-.228 1.63-.437 1.105.465-.319.547-.962.747-1.56.826-.3.04-.63-.013-.923.04-.402.074-.38.16-.661.49-.579.675-1.67.013-2.289-.216-1.036-.384-2.406-.275-3.444.05a.051.051 0 0 0-.009.002zm46.382-13.13c-.701-.194-.607-.156-1.183.23-.55.369-2.51 1.762-.853 1.981.612.08.98-.4 1.497-.6.447-.172 1.483-.018 1.818-.327.81-.75-.726-1.13-1.28-1.284zm-3.343 3.433c.37-.754-.434-1.194-.36-1.894.082-.77 3.452-3.065.791-3.354-2.072-.225-2.258 3.1-3.248 4.227-.502.569-2.643 2.442-2.512 3.292.19 1.227 2.067-.68 2.567-.913.743-.346 2.362-.545 2.762-1.358zm-9.917.144c.395.346.98.455 1.738.122 1.946-.857 1.46-5.851-1.365-3.687-1.184.907-1.237 2.806-.373 3.565zM17.485 45.207c-.071-.51-1.092-1.014-1.685-.933-.593.08-1.016.56-.944 1.07.071.51.61.859 1.204.778.593-.08 1.497-.405 1.425-.915zm-4.506-.108c-1.622-.797-4.41-.238-4.909.745-.498.983.414 2.426 2.037 3.224 1.623.797 3.342.646 3.84-.337.499-.983.655-2.834-.968-3.632zm36.205-11.164c.662.114.867.075 1.343-.474.242-.28.148-.64.539-.931.403-.302.85-.198 1.295-.309.864-.215 1.41-.524 1.759-1.425.583-1.507-.15-3.4-1.798-3.834-2.051-.539-2.967 1.773-4.126 2.94a21.555 21.555 0 0 1-2.52 2.155c-.348.255-3.119 2.238-1.047 2.175.895-.027 1.364-.469 2.187-.63a2.36 2.36 0 0 1 .694-.024c.564.056 1.128.263 1.674.357zM38.271 51.117a5.735 5.735 0 0 1-1.004-.476c-.716-.443-1.332-1.014-2.224-1.108-.85-.09-.806.8-.858 1.428-.105 1.274-.098 2.76.26 4.003.607 2.112 2.04 2.996 4.288 2.495 1.17-.26 3.232-1.001 3.428-2.334.217-1.468-.564-3.184-2.144-3.519a12.607 12.607 0 0 1-1.746-.489zM8.782 27.332c-2.313.649-4.165 4.59-2.737 6.655 1.272 1.842 3.302 1.093 4.204-.51.435-.773.682-2.03 1.465-2.543.567-.372 1.9.02 2.257-.57.917-1.527-4.205-3.308-5.189-3.032zm19.191-6.462c.019.765-.084 1.62.908 1.639-.71-.014 3.641-11.441-1.983-10.515-4.474.738.63 6.393 1.03 8.383.03.152.041.32.045.494zm-3.063 3.24c1.721-.384 3.105 2.868 4.972.98.697-.706.73-3.696 2.25-3.204.63.204.217 1.17 1.105.973.638-.14.718-1.215.844-1.677.231-.852-.011-3.94.987-4.243 1.965-.595.376 3.04.437 3.718.99.19 1.798-.439 2.736-.543.898-.1 1.948.107 2.804.36 1.658.487 3.25 1.494 4.02 3.067.91 1.862.196 3.477-.986 5.012-.92 1.194-3.201 2.918-2.803 4.6.288.008.521.203.82.194.476.807-.62.863-.458 1.772.134.747 1.297 1.366 1.623 2.08.492 1.077.177 1.395 1.563 1.712.686.157 2.138-.227 2.547.49.538.946-.888 1.257-.757 2.135 1.509.649 2.838 2.595 3.164 4.14.454 2.15-.828 2.696-2.416 3.642-1.082.644-.647.299-.713 1.55-.092 1.74-1.141 2.55-2.742.962-1.028-1.022-1.364-3.584-2.808-4.173-2.376-.969.057 1.989-.657 2.789-.92 1.032-1.62-1.66-1.986-2.107-.802-.982-1.839-1.078-2.967-1.651-.739-.376-1.755-1.646-2.3-.133-.575 1.598.975 1.386-.952 1.97-1.098.333-1.117.355-1.544 1.304-.193.428.039.822-.256 1.32-.247.419-.827.62-1.144.99-.51.595-.713 1.319-1.146 1.963-.847 1.259-2.076 2.01-3.638 1.556-2.318-.675-1.15-3.089-.53-4.57.319-.76.878-1.745.177-2.501-.723-.782-1.395-.42-1.833.342-.561.973.074 2.127-.933 3.004-.863.75-2.52.79-3.1-.314-.8-1.527.953-3.193 1.843-4.248.41-.486 1.202-.996.895-1.724-.154-.363-1.515-.908-1.68-.42.33-.975 1.132-2.325.099-2.873-.327-.174-1.1.207-1.553.043-.462-.167-.58-.836-1.098-.96-.884-.212-2.114.677-3.08.72-1.128.05-3.113-.03-3.957-.868-2.615-2.602 3.955-4.861 5.563-5.558.793-.344 2.494-.997 1.738-1.943-.601-.752-2.484.087-1.252-1.674.488-.697 2.838-.803 2.889-1.531.062-.895-1.457-.735-1.398-1.824.059-1.092 1.764-1.133.979-2.348-.31-.479-2.78-1.187-1.539-2.322.776-.71 1.768 1.013 2.708.972.832-.037-.869-3.082-1.007-3.292-.844-1.28-1.8-2.48-1.68-4.127.115-1.578 1.058-1.837 2.285-.828 2.164 1.78 1.431 7.983 5.244 7.41.247-.036.45-.077.621-.115z" fill="#fff"/></mask><g mask="url(#a)"><path fill-rule="evenodd" clip-rule="evenodd" d="M50.596 19.443c-.263.222-.673.112-.965.237a.51.51 0 0 0-.095.053c-.343.245.031.697.222.936.334.42 1.273 1.246 1.844 1.098.345-.09.454-.614.465-.916.018-.537-.136-1.381-.64-1.691-.386-.237-.559.053-.83.283zm2.824 2.055c.652.512 1.648-.251.889-.89-.737-.618-1.613.322-.889.89zm-5.58 1.29c-.43.312-.574.66-.53.99.166 1.247 3.02 2.252 3.425.267.279-1.367-1.997-1.915-2.896-1.258zM30.371 58.45c-.313.955-2.492-1.407-1.414-1.496.473-.038 1.647.786 1.414 1.496zm.655-1.517c-.409 1.248-3.252-1.836-1.845-1.95.617-.051 2.148 1.025 1.845 1.95zm-2.565-.115c.185.69-.762 2.225-1.38 1.834-1.304-.825-.421-2.416-.149-2.6.31-.208 1.218-.395 1.53.766zM62.06 41.28c-1.087-.108-.892-1.715.094-1.04.432.296.713 1.12-.094 1.04zm1.857.271c-1.418-.14-1.164-2.238.122-1.356.564.386.93 1.46-.122 1.356zm-2.065-1.639c-.437.184-2.557-.272-2.742-.7-.391-.907 1.723-.499 2.111-.343.44.177 1.368.735.632 1.043zm-5.403-3.521c-.474.533-3.126.14-3.343-.483-.296-.848 2.258-1.014 2.832-.92.604.1 1.02.83.511 1.403zm-4.133 2.458c-1.23-.298-5.764-.993-5.982-2.526.544-.116 1.143.315 1.697.43 1.096.227 2.264.159 3.376.252 2.39.199 4.595 1.061 6.506 2.491.737.553 2.754 2.6.496 1.818-2.097-.727-3.898-1.933-6.093-2.465zM32.808 13.812c-.217-1.708.657-2.982.978-4.562.114-.56.314-3.644-1.414-3.146-1.914.552-.637 3.448-.387 4.61.578 2.692-.665 4.918-.867 7.422 2.605-.836 1.91-2.594 1.69-4.324zm-10.486.868c.303-.85-1.31-1.546-1.65-.977-.478.8 1.407 1.658 1.65.977zm1.702 2.58c.551-.858-1.396-1.255-1.364-1.433-.113.62.894 2.162 1.364 1.432zM34.708 1.97c1.904-.088-.103-1.897-1.64-1.967-2.16-.098.114 2.037 1.64 1.966zm-.757 2.712c2.392.142-.72-1.85-.38-1.897-1.183.163-1.656 1.776.38 1.897zM5.42 51.375c.016.377-.315.48-.392.768a.46.46 0 0 0-.015.108c-.013.445.565.727.866.88.528.27 1.738.65 1.964.186.136-.28-.21-.897-.44-1.225-.41-.583-1.164-1.402-1.708-1.464-.417-.046-.293.356-.275.747zM3.574 55.44c.155.147.337.24.508.231.384-.021.634-.517.689-.928.032-.243.082-.33.252-.439.127-.081.524-.152.478-.425-.059-.344-.42-.348-.572-.303-.309.092-.4.442-.53.744-.112.26-.35.178-.585.084-.27-.109-.537-.234-.605.119-.044.228.044.49.19.706a1.03 1.03 0 0 0-.414-.231c-.925-.267-.713 1.204.166 1.424.563.14.721-.501.423-.982zm5.145-3.382c.791.198.789-1.15-.166-1.424-.925-.267-.712 1.204.166 1.424zm3.811-.282c-.318.553-.686.939-1.14 1.342-.141.126-1.215.955-.728 1.274.684.45 1.777-1.724 2.088-2.08.353-.401.782-.897.922-1.509-.511-.18-.933.61-1.142.973zm-1.1 3.04c-.347-.191-.895.203-.403.655.578.531.304-.71.403-.655zm2.853-.202c.318.615.664.94.99 1.056 1.234.435 2.183-2.135.207-3.549-1.359-.972-1.864 1.204-1.197 2.493zm-.12-33.523c-.164 1.124-1.742.789-1.53-.38a.936.936 0 0 1 .215-.475.75.75 0 0 1-.75-.038c-.388-.245-.275-.561-.18-.889.083-.286.15-.581-.14-.847-.338-.31-.726-.586-.85-1.053-.063-.23-.089-.73.279-.663.293.052.403.633.501.844.132.281.231.388.498.537.45.251 1.009.81 1.064 1.353a.748.748 0 0 1-.208.604c.497-.208 1.206.286 1.1 1.007zM58.479 43.52c.784.046 3.057-.12 2.334 1.248-.68 1.286-2.014.353-2.47.187-1.358-.494-.993 1.257-2.206 1.606-.62.178-.676-.323-1.316.43-.194.229-.323.53-.62.668-.327.152-.672-.076-.848-.172-.683-.371-.57-1.022-.14-1.952.146-.315.585-.892.454-1.126-.137-.247-.439.059-.74.138-.297.078-.692.008-.716-.248-.051-.553 1.07-.984 1.368-1.43.374-.558-.482-.36-.778-.337-.451.032-1.253-.136-.314-.693a1.815 1.815 0 0 1 1.486-.193c.203.057.356.197.563.241.286.06.334-.015.729-.191.81-.363.977.482 1.175.846.33.609 1.202.928 2.032.978h.007zM4.165 25.832c-.979.308-3.499 1.46-4.088-.051-.553-1.422 2.016-1.2 2.732-1.258 2.133-.172-.151-1.535.919-2.376.547-.43 1.143-.018 1.105-.958-.01-.285-.175-.604.03-.856.227-.278.878-.232 1.188-.226 1.203.02 1.756.636 2.229 1.636.16.34.25 1.037.653 1.183.423.153.458-.247.732-.45.27-.199.811-.313 1.11-.1.647.458-.227 1.33-.11 1.851.147.651.953.099 1.281-.052.5-.228 1.63-.437 1.105.465-.319.547-.962.747-1.56.826-.3.04-.63-.013-.923.04-.402.074-.38.16-.661.49-.579.675-1.67.013-2.289-.216-1.036-.384-2.406-.275-3.444.05a.051.051 0 0 0-.009.002zm46.382-13.13c-.701-.194-.607-.156-1.183.23-.55.369-2.51 1.762-.853 1.981.612.08.98-.4 1.497-.6.447-.172 1.483-.018 1.818-.327.81-.75-.726-1.13-1.28-1.284zm-3.343 3.433c.37-.754-.434-1.194-.36-1.894.082-.77 3.452-3.065.791-3.354-2.072-.225-2.258 3.1-3.248 4.227-.502.569-2.643 2.442-2.512 3.292.19 1.227 2.067-.68 2.567-.913.743-.346 2.362-.545 2.762-1.358zm-9.917.144c.395.346.98.455 1.738.122 1.946-.857 1.46-5.851-1.365-3.687-1.184.907-1.237 2.806-.373 3.565zM17.485 45.207c-.071-.51-1.092-1.014-1.685-.933-.593.08-1.016.56-.944 1.07.071.51.61.859 1.204.778.593-.08 1.497-.405 1.425-.915zm-4.506-.108c-1.622-.797-4.41-.238-4.909.745-.498.983.414 2.426 2.037 3.224 1.623.797 3.342.646 3.84-.337.499-.983.655-2.834-.968-3.632zm36.205-11.164c.662.114.867.075 1.343-.474.242-.28.148-.64.539-.931.403-.302.85-.198 1.295-.309.864-.215 1.41-.524 1.759-1.425.583-1.507-.15-3.4-1.798-3.834-2.051-.539-2.967 1.773-4.126 2.94a21.555 21.555 0 0 1-2.52 2.155c-.348.255-3.119 2.238-1.047 2.175.895-.027 1.364-.469 2.187-.63a2.36 2.36 0 0 1 .694-.024c.564.056 1.128.263 1.674.357zM38.271 51.117a5.735 5.735 0 0 1-1.004-.476c-.716-.443-1.332-1.014-2.224-1.108-.85-.09-.806.8-.858 1.428-.105 1.274-.098 2.76.26 4.003.607 2.112 2.04 2.996 4.288 2.495 1.17-.26 3.232-1.001 3.428-2.334.217-1.468-.564-3.184-2.144-3.519a12.607 12.607 0 0 1-1.746-.489zM8.782 27.332c-2.313.649-4.165 4.59-2.737 6.655 1.272 1.842 3.302 1.093 4.204-.51.435-.773.682-2.03 1.465-2.543.567-.372 1.9.02 2.257-.57.917-1.527-4.205-3.308-5.189-3.032zm19.191-6.462c.019.765-.084 1.62.908 1.639-.71-.014 3.641-11.441-1.983-10.515-4.474.738.63 6.393 1.03 8.383.03.152.041.32.045.494zm-3.063 3.24c1.721-.384 3.105 2.868 4.972.98.697-.706.73-3.696 2.25-3.204.63.204.217 1.17 1.105.973.638-.14.718-1.215.844-1.677.231-.852-.011-3.94.987-4.243 1.965-.595.376 3.04.437 3.718.99.19 1.798-.439 2.736-.543.898-.1 1.948.107 2.804.36 1.658.487 3.25 1.494 4.02 3.067.91 1.862.196 3.477-.986 5.012-.92 1.194-3.201 2.918-2.803 4.6.288.008.521.203.82.194.476.807-.62.863-.458 1.772.134.747 1.297 1.366 1.623 2.08.492 1.077.177 1.395 1.563 1.712.686.157 2.138-.227 2.547.49.538.946-.888 1.257-.757 2.135 1.509.649 2.838 2.595 3.164 4.14.454 2.15-.828 2.696-2.416 3.642-1.082.644-.647.299-.713 1.55-.092 1.74-1.141 2.55-2.742.962-1.028-1.022-1.364-3.584-2.808-4.173-2.376-.969.057 1.989-.657 2.789-.92 1.032-1.62-1.66-1.986-2.107-.802-.982-1.839-1.078-2.967-1.651-.739-.376-1.755-1.646-2.3-.133-.575 1.598.975 1.386-.952 1.97-1.098.333-1.117.355-1.544 1.304-.193.428.039.822-.256 1.32-.247.419-.827.62-1.144.99-.51.595-.713 1.319-1.146 1.963-.847 1.259-2.076 2.01-3.638 1.556-2.318-.675-1.15-3.089-.53-4.57.319-.76.878-1.745.177-2.501-.723-.782-1.395-.42-1.833.342-.561.973.074 2.127-.933 3.004-.863.75-2.52.79-3.1-.314-.8-1.527.953-3.193 1.843-4.248.41-.486 1.202-.996.895-1.724-.154-.363-1.515-.908-1.68-.42.33-.975 1.132-2.325.099-2.873-.327-.174-1.1.207-1.553.043-.462-.167-.58-.836-1.098-.96-.884-.212-2.114.677-3.08.72-1.128.05-3.113-.03-3.957-.868-2.615-2.602 3.955-4.861 5.563-5.558.793-.344 2.494-.997 1.738-1.943-.601-.752-2.484.087-1.252-1.674.488-.697 2.838-.803 2.889-1.531.062-.895-1.457-.735-1.398-1.824.059-1.092 1.764-1.133.979-2.348-.31-.479-2.78-1.187-1.539-2.322.776-.71 1.768 1.013 2.708.972.832-.037-.869-3.082-1.007-3.292-.844-1.28-1.8-2.48-1.68-4.127.115-1.578 1.058-1.837 2.285-.828 2.164 1.78 1.431 7.983 5.244 7.41.247-.036.45-.077.621-.115z" fill="url(#b)"/></g><path fill-rule="evenodd" clip-rule="evenodd" d="M25.828 39h7.442c2.609 0 4.539-1.074 5.789-3.223.922-1.593 1.382-3.539 1.382-5.836 0-.906-.109-1.859-.328-2.859-.218-1-.629-1.93-1.23-2.789-.75-1.063-1.73-1.793-2.942-2.191-.71-.235-1.601-.36-2.672-.375h-7.44V39zm6.832-14.273c1.64 0 2.738.468 3.293 1.406.547.945.82 2.297.82 4.055 0 1.273-.183 2.37-.55 3.293C35.55 35.16 34.363 36 32.66 36h-3.328V24.727h3.328z" fill="#fff"/><path d="M49.313 29.309c-1.344 0-2.247.437-2.708 1.312-.257.492-.386 1.25-.386 2.274V39h-3.364V26.227h3.188v2.226c.516-.851.965-1.433 1.348-1.746.625-.523 1.437-.785 2.437-.785.063 0 .115.002.158.006s.139.01.287.017v3.422a9.075 9.075 0 0 0-.96-.058z" fill="#fff"/><path fill-rule="evenodd" clip-rule="evenodd" d="M61.98 37.559c.704-.782 1.098-1.551 1.184-2.309h-3.41c-.18.375-.387.668-.621.879-.43.39-.989.586-1.676.586-.648 0-1.203-.16-1.664-.48-.758-.516-1.16-1.415-1.207-2.696h8.742c.016-1.102-.02-1.945-.105-2.531-.149-1-.473-1.88-.973-2.637-.555-.86-1.258-1.488-2.11-1.887-.85-.398-1.808-.597-2.87-.597-1.79 0-3.245.59-4.366 1.77-1.12 1.179-1.681 2.874-1.681 5.085 0 2.36.62 4.063 1.863 5.11 1.242 1.046 2.676 1.57 4.3 1.57 1.97 0 3.5-.621 4.594-1.863zm-2.923-8.233c.48.457.748 1.127.802 2.01h-5.191c.11-.828.377-1.484.803-1.969.426-.484 1.025-.726 1.799-.726.71 0 1.306.228 1.787.685zM70.606 25.922c-2.149 0-3.665.562-4.547 1.687-.555.72-.868 1.637-.938 2.754h3.223c.078-.492.234-.883.469-1.172.328-.39.886-.585 1.675-.585.703 0 1.237.1 1.6.298.363.2.545.56.545 1.084 0 .43-.239.746-.715.95-.266.117-.707.214-1.324.293l-1.137.14c-1.289.164-2.266.438-2.93.82-1.21.703-1.816 1.84-1.816 3.41 0 1.212.377 2.147 1.13 2.807.755.66 1.71.99 2.866.99.906 0 1.719-.207 2.438-.62a6.86 6.86 0 0 0 1.593-1.278c.024.29.055.547.094.773.04.227.11.47.211.727h3.633v-.492a1.198 1.198 0 0 1-.492-.387c-.11-.156-.176-.453-.2-.89a56.088 56.088 0 0 1-.023-1.477v-5.86c0-1.538-.543-2.585-1.629-3.14-1.086-.555-2.328-.832-3.726-.832zm-.915 11.05c-.453 0-.835-.128-1.148-.386-.32-.25-.48-.66-.48-1.23 0-.641.257-1.114.773-1.419.305-.18.808-.331 1.512-.456l.75-.141c.375-.07.67-.147.884-.229.215-.082.428-.19.64-.322v1.242c-.024 1.117-.339 1.887-.944 2.309a3.401 3.401 0 0 1-1.987.633zM90.55 39V21.75h-3.386v6.094a4.057 4.057 0 0 0-1.465-1.412c-.601-.34-1.289-.51-2.062-.51-1.68 0-3.022.625-4.026 1.875s-1.505 2.965-1.505 5.144c0 1.891.51 3.44 1.529 4.647 1.02 1.207 2.275 1.81 3.767 1.81.907 0 1.664-.171 2.274-.515.61-.344 1.152-.895 1.629-1.653V39h3.246zm-8.296-3.48c-.469-.704-.703-1.645-.703-2.825 0-1.093.228-2.01.685-2.748.457-.738 1.174-1.107 2.15-1.107.641 0 1.204.203 1.688.61.79.671 1.184 1.788 1.184 3.35 0 1.118-.246 2.028-.739 2.731-.492.703-1.21 1.055-2.156 1.055-.945 0-1.648-.355-2.11-1.066z" fill="#fff"/><path d="M99.574 21.621v2.719a11.054 11.054 0 0 0-.943-.053c-.442-.012-.746.086-.914.293a1.063 1.063 0 0 0-.252.686v1.078h2.191v2.355h-2.191V39h-3.328V28.7h-1.864v-2.356h1.829v-.82c0-1.368.23-2.31.691-2.825.484-.765 1.652-1.148 3.504-1.148.21 0 .402.006.574.017l.703.053zM109.77 37.195a5.64 5.64 0 0 0-.235.352 2.347 2.347 0 0 1-.445.516c-.524.468-1.029.789-1.518.96-.488.172-1.06.258-1.717.258-1.89 0-3.164-.68-3.82-2.039-.367-.75-.551-1.855-.551-3.316v-7.7h3.422v7.7c0 .726.086 1.273.258 1.64.305.649.902.973 1.793.973 1.141 0 1.922-.46 2.344-1.383.219-.5.328-1.16.328-1.98v-6.95h3.387V39h-3.246v-1.805zM116.309 21.727h3.339V39h-3.339V21.727zM142.031 37.71c-1.289 1.18-2.937 1.77-4.945 1.77-2.484 0-4.438-.796-5.859-2.39-1.422-1.602-2.133-3.797-2.133-6.586 0-3.016.808-5.34 2.426-6.973 1.406-1.422 3.195-2.133 5.367-2.133 2.906 0 5.031.954 6.375 2.86.742 1.07 1.14 2.144 1.195 3.223h-3.609c-.235-.829-.536-1.454-.903-1.876-.656-.75-1.629-1.125-2.918-1.125-1.312 0-2.347.53-3.105 1.588-.758 1.059-1.137 2.557-1.137 4.494 0 1.938.401 3.39 1.201 4.354.801.965 1.819 1.447 3.053 1.447 1.266 0 2.231-.414 2.895-1.242.367-.445.671-1.113.914-2.004h3.574c-.313 1.883-1.11 3.414-2.391 4.594zM158.449 31.5V39h-3.41v-7.77c0-.687-.117-1.242-.351-1.664-.305-.593-.883-.89-1.735-.89-.883 0-1.553.295-2.01.885-.457.59-.685 1.431-.685 2.525V39h-3.328V21.785h3.328v6.106c.484-.743 1.045-1.26 1.681-1.553a4.755 4.755 0 0 1 2.01-.44c.789 0 1.506.137 2.151.41a3.77 3.77 0 0 1 1.588 1.255c.351.476.566.966.644 1.47.078.504.117 1.326.117 2.467z" fill="#fff"/><path fill-rule="evenodd" clip-rule="evenodd" d="M171.316 37.559c.704-.782 1.098-1.551 1.184-2.309h-3.41c-.18.375-.387.668-.621.879-.43.39-.989.586-1.676.586-.648 0-1.203-.16-1.664-.48-.758-.516-1.16-1.415-1.207-2.696h8.742c.016-1.102-.019-1.945-.105-2.531-.149-1-.473-1.88-.973-2.637-.555-.86-1.258-1.488-2.109-1.887-.852-.398-1.809-.597-2.872-.597-1.789 0-3.244.59-4.365 1.77-1.121 1.179-1.681 2.874-1.681 5.085 0 2.36.621 4.063 1.863 5.11 1.242 1.046 2.676 1.57 4.301 1.57 1.968 0 3.5-.621 4.593-1.863zm-2.923-8.233c.48.457.748 1.127.802 2.01h-5.191c.109-.828.377-1.484.803-1.969.425-.484 1.025-.726 1.798-.726.711 0 1.307.228 1.788.685z" fill="#fff"/><path d="M181.336 29.309c-1.344 0-2.246.437-2.707 1.312-.258.492-.387 1.25-.387 2.274V39h-3.363V26.227h3.187v2.226c.516-.851.965-1.433 1.348-1.746.625-.523 1.438-.785 2.438-.785a1.8 1.8 0 0 1 .158.006c.043.004.138.01.287.017v3.422a9.101 9.101 0 0 0-.961-.058zM190.676 29.309c-1.344 0-2.246.437-2.707 1.312-.258.492-.387 1.25-.387 2.274V39h-3.363V26.227h3.187v2.226c.516-.851.965-1.433 1.348-1.746.625-.523 1.437-.785 2.437-.785.063 0 .116.002.159.006s.138.01.287.017v3.422a9.101 9.101 0 0 0-.961-.058zM198.785 35.648l2.637-9.421h3.551l-4.383 12.562c-.844 2.422-1.512 3.924-2.004 4.506-.492.582-1.477.873-2.953.873-.297 0-.535-.002-.715-.006-.18-.004-.449-.017-.809-.04v-2.673l.422.024c.328.015.641.004.938-.035.297-.04.547-.13.75-.27.195-.133.377-.41.545-.832.168-.422.236-.68.205-.773l-4.688-13.336h3.715l2.789 9.421zM226.43 21.727v3.058h-5.168V39h-3.633V24.785h-5.191v-3.058h13.992z" fill="#fff"/><path fill-rule="evenodd" clip-rule="evenodd" d="M240.539 32.637c0-1.844-.539-3.442-1.617-4.793-1.078-1.352-2.715-2.028-4.91-2.028-2.196 0-3.832.676-4.91 2.028-1.079 1.351-1.618 2.949-1.618 4.793 0 1.875.539 3.478 1.618 4.81 1.078 1.332 2.714 1.998 4.91 1.998 2.195 0 3.832-.666 4.91-1.998 1.078-1.332 1.617-2.935 1.617-4.81zm-8.795-2.96c.527-.69 1.279-1.036 2.256-1.036.977 0 1.727.345 2.25 1.037.523.691.785 1.677.785 2.959 0 1.281-.262 2.27-.785 2.965-.523.695-1.273 1.043-2.25 1.043-.977 0-1.729-.348-2.256-1.043-.527-.696-.791-1.684-.791-2.965 0-1.282.264-2.268.791-2.96z" fill="#fff"/><path d="M250.102 29.742c-.282-.617-.832-.926-1.653-.926-.953 0-1.594.309-1.922.926-.179.352-.269.875-.269 1.57V39h-3.387V26.25h3.246v1.863c.414-.664.805-1.136 1.172-1.418.649-.5 1.488-.75 2.52-.75.976 0 1.765.215 2.367.645.484.398.851.91 1.101 1.535.438-.75.981-1.3 1.629-1.652.688-.352 1.453-.528 2.297-.528.563 0 1.117.11 1.664.328.547.22 1.043.602 1.488 1.149.36.445.602.992.727 1.64.078.43.117 1.06.117 1.887L261.176 39h-3.422v-8.133c0-.484-.078-.883-.234-1.195-.297-.594-.844-.89-1.641-.89-.922 0-1.559.382-1.91 1.148-.18.406-.27.894-.27 1.465V39h-3.363v-7.605c0-.758-.078-1.31-.234-1.653z" fill="#fff"/><path fill-rule="evenodd" clip-rule="evenodd" d="M269.297 25.922c-2.149 0-3.664.562-4.547 1.687-.555.72-.867 1.637-.938 2.754h3.223c.078-.492.235-.883.469-1.172.328-.39.887-.585 1.676-.585.703 0 1.236.1 1.599.298.364.2.545.56.545 1.084 0 .43-.238.746-.715.95-.265.117-.707.214-1.324.293l-1.137.14c-1.289.164-2.265.438-2.929.82-1.211.703-1.817 1.84-1.817 3.41 0 1.212.377 2.147 1.131 2.807.754.66 1.709.99 2.865.99.907 0 1.719-.207 2.438-.62a6.854 6.854 0 0 0 1.594-1.278c.023.29.054.547.093.773.039.227.11.47.211.727h3.633v-.492a1.193 1.193 0 0 1-.492-.387c-.109-.156-.176-.453-.199-.89a54.638 54.638 0 0 1-.024-1.477v-5.86c0-1.538-.543-2.585-1.629-3.14-1.085-.555-2.328-.832-3.726-.832zm-.914 11.05c-.453 0-.836-.128-1.149-.386-.32-.25-.48-.66-.48-1.23 0-.641.258-1.114.773-1.419.305-.18.809-.331 1.512-.456l.75-.141c.375-.07.67-.147.885-.229.215-.082.428-.19.638-.322v1.242c-.023 1.117-.337 1.887-.943 2.309a3.399 3.399 0 0 1-1.986.633z" fill="#fff"/><path d="M283.465 36.621v2.496l-1.582.059c-1.578.054-2.656-.219-3.235-.82-.375-.383-.562-.973-.562-1.77v-7.863h-1.781v-2.38h1.781v-3.562h3.305v3.563h2.074v2.379h-2.074v6.75c0 .523.066.85.199.978.133.13.539.194 1.219.194a9.38 9.38 0 0 0 .656-.024z" fill="#fff"/><path fill-rule="evenodd" clip-rule="evenodd" d="M297.879 32.637c0-1.844-.539-3.442-1.617-4.793-1.078-1.352-2.715-2.028-4.91-2.028-2.196 0-3.832.676-4.911 2.028-1.078 1.351-1.617 2.949-1.617 4.793 0 1.875.539 3.478 1.617 4.81 1.079 1.332 2.715 1.998 4.911 1.998 2.195 0 3.832-.666 4.91-1.998 1.078-1.332 1.617-2.935 1.617-4.81zm-8.795-2.96c.527-.69 1.279-1.036 2.256-1.036.976 0 1.726.345 2.25 1.037.523.691.785 1.677.785 2.959 0 1.281-.262 2.27-.785 2.965-.524.695-1.274 1.043-2.25 1.043-.977 0-1.729-.348-2.256-1.043-.527-.696-.791-1.684-.791-2.965 0-1.282.264-2.268.791-2.96zM310.02 37.559c.703-.782 1.097-1.551 1.183-2.309h-3.41c-.18.375-.387.668-.621.879-.43.39-.988.586-1.676.586-.648 0-1.203-.16-1.664-.48-.758-.516-1.16-1.415-1.207-2.696h8.742c.016-1.102-.019-1.945-.105-2.531-.149-1-.473-1.88-.973-2.637-.555-.86-1.258-1.488-2.109-1.887-.852-.398-1.809-.597-2.871-.597-1.789 0-3.245.59-4.366 1.77-1.121 1.179-1.681 2.874-1.681 5.085 0 2.36.621 4.063 1.863 5.11 1.242 1.046 2.676 1.57 4.301 1.57 1.969 0 3.5-.621 4.594-1.863zm-2.924-8.233c.48.457.748 1.127.802 2.01h-5.191c.109-.828.377-1.484.803-1.969.426-.484 1.025-.726 1.799-.726.711 0 1.306.228 1.787.685z" fill="#fff"/><path d="M322.418 26.813c1 .64 1.574 1.742 1.723 3.304h-3.34c-.047-.43-.168-.77-.363-1.02-.368-.453-.993-.679-1.876-.679-.726 0-1.244.113-1.552.34-.309.226-.463.492-.463.797 0 .383.164.66.492.832.328.18 1.488.488 3.481.925 1.328.313 2.324.786 2.988 1.418.656.641.984 1.442.984 2.403 0 1.265-.471 2.299-1.412 3.1-.941.8-2.396 1.2-4.365 1.2-2.008 0-3.49-.423-4.447-1.27-.957-.848-1.436-1.929-1.436-3.241h3.387c.07.594.222 1.016.457 1.266.414.445 1.179.667 2.297.667.656 0 1.177-.097 1.564-.292.387-.196.58-.489.58-.88a.947.947 0 0 0-.469-.855c-.312-.195-1.472-.531-3.48-1.008-1.445-.36-2.465-.808-3.059-1.347-.593-.532-.89-1.297-.89-2.297 0-1.18.463-2.194 1.388-3.041.926-.848 2.229-1.272 3.909-1.272 1.593 0 2.894.317 3.902.95z" fill="#fff"/><defs><linearGradient id="b" x1="1.584" y1="-1.051" x2="1.584" y2="54.784" gradientUnits="userSpaceOnUse"><stop stop-color="#E14221"/><stop offset="1" stop-color="#C02121"/></linearGradient></defs></svg>